<svg width="21" height="20" viewBox="0 0 21 20" fill="none" xmlns="http://www.w3.org/2000/svg">
<path d="M20.2385 9.11016L16.0621 12.755L17.3132 18.1816C17.3794 18.4653 17.3605 18.7622 17.2589 19.0352C17.1573 19.3082 16.9774 19.5452 16.7418 19.7166C16.5063 19.8879 16.2254 19.986 15.9344 19.9986C15.6433 20.0112 15.355 19.9377 15.1055 19.7874L10.3726 16.9166L5.64977 19.7874C5.40027 19.9377 5.11198 20.0112 4.82094 19.9986C4.52991 19.986 4.24904 19.8879 4.01346 19.7166C3.77788 19.5452 3.59803 19.3082 3.49641 19.0352C3.39479 18.7622 3.3759 18.4653 3.4421 18.1816L4.69132 12.7606L0.513971 9.11016C0.293027 8.91961 0.133261 8.66806 0.0547085 8.38706C-0.0238437 8.10607 -0.0176855 7.80814 0.0724107 7.53063C0.162507 7.25312 0.33253 7.00839 0.56116 6.82713C0.78979 6.64586 1.06685 6.53614 1.35759 6.5117L6.8638 6.03479L9.01313 0.908257C9.12538 0.639258 9.3147 0.409482 9.55726 0.247861C9.79982 0.08624 10.0848 0 10.3763 0C10.6677 0 10.9527 0.08624 11.1953 0.247861C11.4378 0.409482 11.6271 0.639258 11.7394 0.908257L13.8952 6.03479L19.3996 6.5117C19.6903 6.53614 19.9674 6.64586 20.196 6.82713C20.4246 7.00839 20.5946 7.25312 20.6847 7.53063C20.7748 7.80814 20.781 8.10607 20.7024 8.38706C20.6239 8.66806 20.4641 8.91961 20.2432 9.11016H20.2385Z" fill="#6F6C99"/>
</svg>
