<svg width="40" height="40" viewBox="0 0 40 40" fill="none" xmlns="http://www.w3.org/2000/svg">
<path d="M24.0758 29.2308C24.0758 29.4348 23.9948 29.6304 23.8505 29.7747C23.7062 29.919 23.5106 30 23.3066 30H17.1527C16.9487 30 16.7531 29.919 16.6088 29.7747C16.4645 29.6304 16.3835 29.4348 16.3835 29.2308C16.3835 29.0268 16.4645 28.8311 16.6088 28.6868C16.7531 28.5426 16.9487 28.4615 17.1527 28.4615H23.3066C23.5106 28.4615 23.7062 28.5426 23.8505 28.6868C23.9948 28.8311 24.0758 29.0268 24.0758 29.2308ZM29.2498 24.6096C28.7152 23.6904 27.922 21.0894 27.922 17.6923C27.922 15.6522 27.1115 13.6956 25.6689 12.253C24.2263 10.8104 22.2698 10 20.2297 10C18.1895 10 16.233 10.8104 14.7904 12.253C13.3478 13.6956 12.5373 15.6522 12.5373 17.6923C12.5373 21.0904 11.7431 23.6904 11.2095 24.6096C11.0732 24.8433 11.0009 25.1088 11 25.3793C10.9991 25.6499 11.0695 25.9158 11.2042 26.1505C11.3388 26.3851 11.533 26.5801 11.7671 26.7157C12.0011 26.8514 12.2668 26.9229 12.5373 26.9231H27.922C28.1924 26.9227 28.458 26.8511 28.6919 26.7153C28.9258 26.5796 29.1199 26.3847 29.2544 26.1501C29.389 25.9155 29.4593 25.6495 29.4583 25.3791C29.4574 25.1087 29.3851 24.8432 29.2489 24.6096H29.2498Z" fill="#6F6C99"/>
</svg>
