<svg width="40" height="40" viewBox="0 0 40 40" fill="none" xmlns="http://www.w3.org/2000/svg">
<path d="M30.8303 20.0012C30.8303 21.9541 30.2585 23.8643 29.1853 25.4959C28.1121 27.1275 26.5846 28.4091 24.7914 29.1825C22.9981 29.9559 21.0176 30.1872 19.0944 29.8479C17.1712 29.5086 15.3895 28.6135 13.9692 27.2731C13.8896 27.1978 13.8256 27.1077 13.7808 27.0077C13.7361 26.9077 13.7115 26.8 13.7084 26.6905C13.7053 26.581 13.7238 26.472 13.7628 26.3696C13.8018 26.2673 13.8607 26.1737 13.9359 26.0941C14.0878 25.9333 14.2974 25.8395 14.5185 25.8332C14.628 25.8301 14.737 25.8486 14.8393 25.8877C14.9416 25.9267 15.0353 25.9855 15.1149 26.0607C16.3061 27.1846 17.8021 27.9324 19.4159 28.2109C21.0297 28.4893 22.6898 28.286 24.1888 27.6264C25.6877 26.9667 26.959 25.8799 27.8439 24.5019C28.7287 23.1238 29.1878 21.5156 29.1638 19.8781C29.1399 18.2406 28.6339 16.6465 27.7091 15.2949C26.7843 13.9433 25.4817 12.8943 23.9641 12.2788C22.4465 11.6633 20.7811 11.5087 19.1762 11.8343C17.5712 12.1598 16.0977 12.9512 14.9399 14.1094C14.5723 14.4812 14.2265 14.8468 13.8901 15.2102L15.5888 16.9121C15.7054 17.0286 15.7849 17.1771 15.8171 17.3388C15.8493 17.5006 15.8328 17.6682 15.7697 17.8205C15.7066 17.9728 15.5997 18.103 15.4625 18.1946C15.3254 18.2861 15.1642 18.3349 14.9993 18.3348H10.8332C10.6122 18.3348 10.4003 18.247 10.244 18.0907C10.0878 17.9345 10 17.7226 10 17.5016V13.3355C9.99987 13.1706 10.0487 13.0094 10.1402 12.8723C10.2318 12.7351 10.3619 12.6282 10.5143 12.5651C10.6666 12.502 10.8342 12.4855 10.9959 12.5177C11.1577 12.5499 11.3062 12.6294 11.4227 12.746L12.7079 14.0333C13.0433 13.6698 13.3891 13.3043 13.7557 12.9345C15.1535 11.5343 16.9353 10.5803 18.8755 10.1932C20.8158 9.80615 22.8272 10.0034 24.6553 10.76C26.4834 11.5166 28.046 12.7985 29.1452 14.4435C30.2444 16.0886 30.8308 18.0227 30.8303 20.0012ZM20.8318 14.1687C20.6108 14.1687 20.3988 14.2565 20.2426 14.4128C20.0863 14.569 19.9985 14.781 19.9985 15.0019V20.0012C19.9985 20.1451 20.0357 20.2865 20.1065 20.4117C20.1773 20.5369 20.2793 20.6416 20.4026 20.7157L24.5687 23.2153C24.6625 23.2717 24.7665 23.309 24.8748 23.3251C24.983 23.3413 25.0934 23.336 25.1996 23.3095C25.3058 23.283 25.4057 23.2358 25.4937 23.1707C25.5817 23.1056 25.6559 23.0238 25.7123 22.9299C25.7686 22.8361 25.806 22.7321 25.8221 22.6239C25.8383 22.5156 25.8329 22.4052 25.8064 22.2991C25.78 22.1929 25.7328 22.0929 25.6677 22.005C25.6026 21.917 25.5207 21.8427 25.4269 21.7864L21.665 19.5294V15.0019C21.665 14.781 21.5772 14.569 21.4209 14.4128C21.2647 14.2565 21.0527 14.1687 20.8318 14.1687Z" fill="#6F6C99"/>
</svg>
