<svg width="40" height="40" viewBox="0 0 40 40" fill="none" xmlns="http://www.w3.org/2000/svg">
<path d="M23.8418 18.4646C23.8418 19.5293 23.5261 20.57 22.9346 21.4552C22.3431 22.3404 21.5024 23.0303 20.5188 23.4378C19.5352 23.8452 18.4529 23.9518 17.4087 23.7441C16.3645 23.5364 15.4054 23.0237 14.6526 22.2709C13.8998 21.5181 13.3871 20.5589 13.1794 19.5148C12.9717 18.4706 13.0783 17.3883 13.4857 16.4047C13.8931 15.4211 14.5831 14.5804 15.4683 13.9889C16.3535 13.3974 17.3942 13.0817 18.4589 13.0817C19.8865 13.0817 21.2557 13.6488 22.2652 14.6583C23.2746 15.6678 23.8418 17.037 23.8418 18.4646ZM29.7687 29.7745C29.6973 29.846 29.6125 29.9027 29.5191 29.9414C29.4258 29.9801 29.3257 30 29.2247 30C29.1236 30 29.0235 29.9801 28.9302 29.9414C28.8368 29.9027 28.752 29.846 28.6806 29.7745L23.8687 24.9616C22.1953 26.3537 20.0496 27.0472 17.878 26.8977C15.7063 26.7482 13.6759 25.7673 12.209 24.159C10.7422 22.5507 9.95178 20.4388 10.0023 18.2626C10.0528 16.0864 10.9403 14.0134 12.4802 12.4749C14.0201 10.9364 16.0938 10.0507 18.2701 10.0021C20.4463 9.95353 22.5575 10.7458 24.1645 12.2141C25.7715 13.6824 26.7507 15.7136 26.8982 17.8854C27.0458 20.0572 26.3504 22.2023 24.9568 23.8744L29.7687 28.6864C29.8402 28.7578 29.8969 28.8426 29.9356 28.9359C29.9743 29.0293 29.9943 29.1294 29.9943 29.2304C29.9943 29.3315 29.9743 29.4315 29.9356 29.5249C29.8969 29.6182 29.8402 29.7031 29.7687 29.7745ZM18.4589 25.3855C19.8277 25.3855 21.1658 24.9796 22.3039 24.2191C23.442 23.4586 24.3291 22.3777 24.8529 21.1131C25.3767 19.8485 25.5138 18.4569 25.2468 17.1144C24.9797 15.7719 24.3206 14.5387 23.3527 13.5708C22.3848 12.6029 21.1516 11.9438 19.8091 11.6767C18.4665 11.4097 17.075 11.5467 15.8104 12.0706C14.5457 12.5944 13.4649 13.4815 12.7044 14.6196C11.9439 15.7577 11.538 17.0958 11.538 18.4646C11.54 20.2995 12.2699 22.0587 13.5673 23.3562C14.8648 24.6536 16.624 25.3834 18.4589 25.3855Z" fill="#6F6C99"/>
</svg>
