<svg width="40" height="40" viewBox="0 0 40 40" fill="none" xmlns="http://www.w3.org/2000/svg">
<path d="M30.3366 18.0009C30.3152 17.8926 30.2707 17.7902 30.2062 17.7006C30.1417 17.6111 30.0586 17.5364 29.9627 17.4818L27.0952 15.8476L27.0836 12.6157C27.0833 12.5044 27.0588 12.3945 27.0118 12.2936C26.9648 12.1927 26.8965 12.1032 26.8116 12.0313C25.7714 11.1514 24.5735 10.4771 23.2817 10.0443C23.18 10.0098 23.0722 9.9971 22.9652 10.0069C22.8582 10.0166 22.7545 10.0487 22.6607 10.101L19.7682 11.7179L16.8728 10.0981C16.7789 10.0455 16.675 10.0132 16.5679 10.0033C16.4608 9.99335 16.3527 10.006 16.2508 10.0404C14.9598 10.4761 13.7632 11.1529 12.7248 12.0351C12.64 12.1069 12.5717 12.1963 12.5248 12.297C12.4778 12.3978 12.4532 12.5075 12.4527 12.6186L12.4383 15.8534L9.57077 17.4876C9.47484 17.5422 9.39178 17.6168 9.32726 17.7064C9.26273 17.796 9.21825 17.8984 9.19683 18.0067C8.93439 19.3255 8.93439 20.683 9.19683 22.0018C9.21825 22.1101 9.26273 22.2125 9.32726 22.3021C9.39178 22.3917 9.47484 22.4663 9.57077 22.5209L12.4383 24.1551L12.4498 27.3879C12.4502 27.4992 12.4747 27.6091 12.5217 27.7101C12.5686 27.811 12.637 27.9005 12.7219 27.9724C13.7621 28.8523 14.9599 29.5266 16.2518 29.9594C16.3535 29.9938 16.4613 30.0066 16.5683 29.9968C16.6752 29.987 16.7789 29.955 16.8728 29.9027L19.7682 28.281L22.6636 29.9008C22.7782 29.9646 22.9073 29.9977 23.0385 29.9969C23.1225 29.9969 23.2059 29.9832 23.2855 29.9565C24.5763 29.5211 25.7727 28.8449 26.8116 27.9638C26.8964 27.8919 26.9646 27.8026 27.0116 27.7018C27.0586 27.6011 27.0831 27.4914 27.0836 27.3803L27.098 24.1455L29.9656 22.5113C30.0615 22.4567 30.1446 22.3821 30.2091 22.2925C30.2736 22.2029 30.3181 22.1005 30.3395 21.9922C30.6005 20.6745 30.5995 19.3183 30.3366 18.0009ZM19.7682 23.8446C19.0077 23.8446 18.2642 23.6191 17.6319 23.1966C16.9996 22.7741 16.5067 22.1735 16.2157 21.4709C15.9247 20.7683 15.8485 19.9952 15.9969 19.2493C16.1453 18.5034 16.5115 17.8182 17.0492 17.2805C17.587 16.7427 18.2721 16.3765 19.018 16.2281C19.7639 16.0798 20.537 16.1559 21.2397 16.447C21.9423 16.738 22.5428 17.2308 22.9653 17.8632C23.3878 18.4955 23.6134 19.2389 23.6134 19.9994C23.6134 21.0192 23.2082 21.9973 22.4871 22.7184C21.766 23.4395 20.788 23.8446 19.7682 23.8446Z" fill="#6F6C99"/>
</svg>
